<?xml version="1.0" encoding="utf-8"?>
<svg version="1.1" xmlns:xlink="http://www.w3.org/1999/xlink" width="12px" height="12px" viewBox="332 249.5  12 12" xmlns="http://www.w3.org/2000/svg">
  <path d="M 338 249.5  C 341.36 249.5  344 252.14  344 255.5  C 344 258.86  341.36 261.5  338 261.5  C 334.64 261.5  332 258.86  332 255.5  C 332 252.14  334.64 249.5  338 249.5  Z " fill-rule="nonzero" fill="#ffffff" stroke="none" />
  <path d="M 338 250  C 341.08 250  343.5 252.42  343.5 255.5  C 343.5 258.58  341.08 261  338 261  C 334.92 261  332.5 258.58  332.5 255.5  C 332.5 252.42  334.92 250  338 250  Z " stroke-width="1" stroke="#797979" fill="none" />
  <path d="M 338 258.5  C 336.32 258.5  335 257.18  335 255.5  C 335 253.82  336.32 252.5  338 252.5  C 339.68 252.5  341 253.82  341 255.5  C 341 257.18  339.68 258.5  338 258.5  " fill-rule="nonzero" fill="#797979" stroke="none" />
</svg>