<?xml version="1.0" encoding="utf-8"?>
<svg version="1.1" xmlns:xlink="http://www.w3.org/1999/xlink" width="12px" height="12px" viewBox="444 249.5  12 12" xmlns="http://www.w3.org/2000/svg">
  <path d="M 450 249.5  C 453.36 249.5  456 252.14  456 255.5  C 456 258.86  453.36 261.5  450 261.5  C 446.64 261.5  444 258.86  444 255.5  C 444 252.14  446.64 249.5  450 249.5  Z " fill-rule="nonzero" fill="#ffffff" stroke="none" />
  <path d="M 450 250  C 453.08 250  455.5 252.42  455.5 255.5  C 455.5 258.58  453.08 261  450 261  C 446.92 261  444.5 258.58  444.5 255.5  C 444.5 252.42  446.92 250  450 250  Z " stroke-width="1" stroke="#797979" fill="none" />
  <path d="M 450 258.5  C 448.32 258.5  447 257.18  447 255.5  C 447 253.82  448.32 252.5  450 252.5  C 451.68 252.5  453 253.82  453 255.5  C 453 257.18  451.68 258.5  450 258.5  " fill-rule="nonzero" fill="#797979" stroke="none" />
</svg>