<?xml version="1.0" encoding="utf-8"?>
<svg version="1.1" xmlns:xlink="http://www.w3.org/1999/xlink" width="12px" height="12px" viewBox="195 249.5  12 12" xmlns="http://www.w3.org/2000/svg">
  <path d="M 201 249.5  C 204.36 249.5  207 252.14  207 255.5  C 207 258.86  204.36 261.5  201 261.5  C 197.64 261.5  195 258.86  195 255.5  C 195 252.14  197.64 249.5  201 249.5  Z " fill-rule="nonzero" fill="#ffffff" stroke="none" />
  <path d="M 201 250  C 204.08 250  206.5 252.42  206.5 255.5  C 206.5 258.58  204.08 261  201 261  C 197.92 261  195.5 258.58  195.5 255.5  C 195.5 252.42  197.92 250  201 250  Z " stroke-width="1" stroke="#797979" fill="none" />
  <path d="M 201 258.5  C 199.32 258.5  198 257.18  198 255.5  C 198 253.82  199.32 252.5  201 252.5  C 202.68 252.5  204 253.82  204 255.5  C 204 257.18  202.68 258.5  201 258.5  " fill-rule="nonzero" fill="#797979" stroke="none" />
</svg>