<?xml version="1.0" encoding="utf-8"?>
<svg version="1.1" xmlns:xlink="http://www.w3.org/1999/xlink" width="12px" height="12px" viewBox="1902 162.5  12 12" xmlns="http://www.w3.org/2000/svg">
  <path d="M 1908 162.5  C 1911.36 162.5  1914 165.14  1914 168.5  C 1914 171.86  1911.36 174.5  1908 174.5  C 1904.64 174.5  1902 171.86  1902 168.5  C 1902 165.14  1904.64 162.5  1908 162.5  Z " fill-rule="nonzero" fill="#ffffff" stroke="none" />
  <path d="M 1908 163  C 1911.08 163  1913.5 165.42  1913.5 168.5  C 1913.5 171.58  1911.08 174  1908 174  C 1904.92 174  1902.5 171.58  1902.5 168.5  C 1902.5 165.42  1904.92 163  1908 163  Z " stroke-width="1" stroke="#797979" fill="none" />
  <path d="M 1908 171.5  C 1906.32 171.5  1905 170.18  1905 168.5  C 1905 166.82  1906.32 165.5  1908 165.5  C 1909.68 165.5  1911 166.82  1911 168.5  C 1911 170.18  1909.68 171.5  1908 171.5  " fill-rule="nonzero" fill="#797979" stroke="none" />
</svg>