<?xml version="1.0" encoding="utf-8"?>
<svg version="1.1" xmlns:xlink="http://www.w3.org/1999/xlink" width="12px" height="12px" viewBox="1782 1004.5  12 12" xmlns="http://www.w3.org/2000/svg">
  <path d="M 1788 1004.5  C 1791.36 1004.5  1794 1007.14  1794 1010.5  C 1794 1013.86  1791.36 1016.5  1788 1016.5  C 1784.64 1016.5  1782 1013.86  1782 1010.5  C 1782 1007.14  1784.64 1004.5  1788 1004.5  Z " fill-rule="nonzero" fill="#ffffff" stroke="none" />
  <path d="M 1788 1005  C 1791.08 1005  1793.5 1007.42  1793.5 1010.5  C 1793.5 1013.58  1791.08 1016  1788 1016  C 1784.92 1016  1782.5 1013.58  1782.5 1010.5  C 1782.5 1007.42  1784.92 1005  1788 1005  Z " stroke-width="1" stroke="#797979" fill="none" />
  <path d="M 1788 1013.5  C 1786.32 1013.5  1785 1012.18  1785 1010.5  C 1785 1008.82  1786.32 1007.5  1788 1007.5  C 1789.68 1007.5  1791 1008.82  1791 1010.5  C 1791 1012.18  1789.68 1013.5  1788 1013.5  " fill-rule="nonzero" fill="#797979" stroke="none" />
</svg>