<?xml version="1.0" encoding="utf-8"?>
<svg version="1.1" xmlns:xlink="http://www.w3.org/1999/xlink" width="12px" height="12px" viewBox="1782 162.5  12 12" xmlns="http://www.w3.org/2000/svg">
  <path d="M 1788 162.5  C 1791.36 162.5  1794 165.14  1794 168.5  C 1794 171.86  1791.36 174.5  1788 174.5  C 1784.64 174.5  1782 171.86  1782 168.5  C 1782 165.14  1784.64 162.5  1788 162.5  Z " fill-rule="nonzero" fill="#ffffff" stroke="none" />
  <path d="M 1788 163  C 1791.08 163  1793.5 165.42  1793.5 168.5  C 1793.5 171.58  1791.08 174  1788 174  C 1784.92 174  1782.5 171.58  1782.5 168.5  C 1782.5 165.42  1784.92 163  1788 163  Z " stroke-width="1" stroke="#797979" fill="none" />
  <path d="M 1788 171.5  C 1786.32 171.5  1785 170.18  1785 168.5  C 1785 166.82  1786.32 165.5  1788 165.5  C 1789.68 165.5  1791 166.82  1791 168.5  C 1791 170.18  1789.68 171.5  1788 171.5  " fill-rule="nonzero" fill="#797979" stroke="none" />
</svg>