<?xml version="1.0" encoding="utf-8"?>
<svg version="1.1" xmlns:xlink="http://www.w3.org/1999/xlink" width="12px" height="12px" viewBox="1132 199.5  12 12" xmlns="http://www.w3.org/2000/svg">
  <path d="M 1138 199.5  C 1141.36 199.5  1144 202.14  1144 205.5  C 1144 208.86  1141.36 211.5  1138 211.5  C 1134.64 211.5  1132 208.86  1132 205.5  C 1132 202.14  1134.64 199.5  1138 199.5  Z " fill-rule="nonzero" fill="#ffffff" stroke="none" />
  <path d="M 1138 200  C 1141.08 200  1143.5 202.42  1143.5 205.5  C 1143.5 208.58  1141.08 211  1138 211  C 1134.92 211  1132.5 208.58  1132.5 205.5  C 1132.5 202.42  1134.92 200  1138 200  Z " stroke-width="1" stroke="#797979" fill="none" />
  <path d="M 1138 208.5  C 1136.32 208.5  1135 207.18  1135 205.5  C 1135 203.82  1136.32 202.5  1138 202.5  C 1139.68 202.5  1141 203.82  1141 205.5  C 1141 207.18  1139.68 208.5  1138 208.5  " fill-rule="nonzero" fill="#797979" stroke="none" />
</svg>