<?xml version="1.0" encoding="utf-8"?>
<svg version="1.1" xmlns:xlink="http://www.w3.org/1999/xlink" width="12px" height="12px" viewBox="1022 199.5  12 12" xmlns="http://www.w3.org/2000/svg">
  <path d="M 1028 199.5  C 1031.36 199.5  1034 202.14  1034 205.5  C 1034 208.86  1031.36 211.5  1028 211.5  C 1024.64 211.5  1022 208.86  1022 205.5  C 1022 202.14  1024.64 199.5  1028 199.5  Z " fill-rule="nonzero" fill="#ffffff" stroke="none" />
  <path d="M 1028 200  C 1031.08 200  1033.5 202.42  1033.5 205.5  C 1033.5 208.58  1031.08 211  1028 211  C 1024.92 211  1022.5 208.58  1022.5 205.5  C 1022.5 202.42  1024.92 200  1028 200  Z " stroke-width="1" stroke="#797979" fill="none" />
  <path d="M 1028 208.5  C 1026.32 208.5  1025 207.18  1025 205.5  C 1025 203.82  1026.32 202.5  1028 202.5  C 1029.68 202.5  1031 203.82  1031 205.5  C 1031 207.18  1029.68 208.5  1028 208.5  " fill-rule="nonzero" fill="#797979" stroke="none" />
</svg>