<?xml version="1.0" encoding="utf-8"?>
<svg version="1.1" xmlns:xlink="http://www.w3.org/1999/xlink" width="12px" height="12px" viewBox="1782 846.5  12 12" xmlns="http://www.w3.org/2000/svg">
  <path d="M 1788 846.5  C 1791.36 846.5  1794 849.14  1794 852.5  C 1794 855.86  1791.36 858.5  1788 858.5  C 1784.64 858.5  1782 855.86  1782 852.5  C 1782 849.14  1784.64 846.5  1788 846.5  Z " fill-rule="nonzero" fill="#ffffff" stroke="none" />
  <path d="M 1788 847  C 1791.08 847  1793.5 849.42  1793.5 852.5  C 1793.5 855.58  1791.08 858  1788 858  C 1784.92 858  1782.5 855.58  1782.5 852.5  C 1782.5 849.42  1784.92 847  1788 847  Z " stroke-width="1" stroke="#797979" fill="none" />
  <path d="M 1788 855.5  C 1786.32 855.5  1785 854.18  1785 852.5  C 1785 850.82  1786.32 849.5  1788 849.5  C 1789.68 849.5  1791 850.82  1791 852.5  C 1791 854.18  1789.68 855.5  1788 855.5  " fill-rule="nonzero" fill="#797979" stroke="none" />
</svg>