<?xml version="1.0" encoding="utf-8"?>
<svg version="1.1" xmlns:xlink="http://www.w3.org/1999/xlink" width="12px" height="12px" viewBox="1782 876.5  12 12" xmlns="http://www.w3.org/2000/svg">
  <path d="M 1788 876.5  C 1791.36 876.5  1794 879.14  1794 882.5  C 1794 885.86  1791.36 888.5  1788 888.5  C 1784.64 888.5  1782 885.86  1782 882.5  C 1782 879.14  1784.64 876.5  1788 876.5  Z " fill-rule="nonzero" fill="#ffffff" stroke="none" />
  <path d="M 1788 877  C 1791.08 877  1793.5 879.42  1793.5 882.5  C 1793.5 885.58  1791.08 888  1788 888  C 1784.92 888  1782.5 885.58  1782.5 882.5  C 1782.5 879.42  1784.92 877  1788 877  Z " stroke-width="1" stroke="#797979" fill="none" />
  <path d="M 1788 885.5  C 1786.32 885.5  1785 884.18  1785 882.5  C 1785 880.82  1786.32 879.5  1788 879.5  C 1789.68 879.5  1791 880.82  1791 882.5  C 1791 884.18  1789.68 885.5  1788 885.5  " fill-rule="nonzero" fill="#797979" stroke="none" />
</svg>