<?xml version="1.0" encoding="utf-8"?>
<svg version="1.1" xmlns:xlink="http://www.w3.org/1999/xlink" width="12px" height="12px" viewBox="370 1449.5  12 12" xmlns="http://www.w3.org/2000/svg">
  <path d="M 376 1449.5  C 379.36 1449.5  382 1452.14  382 1455.5  C 382 1458.86  379.36 1461.5  376 1461.5  C 372.64 1461.5  370 1458.86  370 1455.5  C 370 1452.14  372.64 1449.5  376 1449.5  Z " fill-rule="nonzero" fill="#ffffff" stroke="none" />
  <path d="M 376 1450  C 379.08 1450  381.5 1452.42  381.5 1455.5  C 381.5 1458.58  379.08 1461  376 1461  C 372.92 1461  370.5 1458.58  370.5 1455.5  C 370.5 1452.42  372.92 1450  376 1450  Z " stroke-width="1" stroke="#797979" fill="none" />
  <path d="M 376 1458.5  C 374.32 1458.5  373 1457.18  373 1455.5  C 373 1453.82  374.32 1452.5  376 1452.5  C 377.68 1452.5  379 1453.82  379 1455.5  C 379 1457.18  377.68 1458.5  376 1458.5  " fill-rule="nonzero" fill="#797979" stroke="none" />
</svg>