<?xml version="1.0" encoding="utf-8"?>
<svg version="1.1" xmlns:xlink="http://www.w3.org/1999/xlink" width="12px" height="12px" viewBox="397 1499.5  12 12" xmlns="http://www.w3.org/2000/svg">
  <path d="M 403 1499.5  C 406.36 1499.5  409 1502.14  409 1505.5  C 409 1508.86  406.36 1511.5  403 1511.5  C 399.64 1511.5  397 1508.86  397 1505.5  C 397 1502.14  399.64 1499.5  403 1499.5  Z " fill-rule="nonzero" fill="#ffffff" stroke="none" />
  <path d="M 403 1500  C 406.08 1500  408.5 1502.42  408.5 1505.5  C 408.5 1508.58  406.08 1511  403 1511  C 399.92 1511  397.5 1508.58  397.5 1505.5  C 397.5 1502.42  399.92 1500  403 1500  Z " stroke-width="1" stroke="#797979" fill="none" />
  <path d="M 403 1508.5  C 401.32 1508.5  400 1507.18  400 1505.5  C 400 1503.82  401.32 1502.5  403 1502.5  C 404.68 1502.5  406 1503.82  406 1505.5  C 406 1507.18  404.68 1508.5  403 1508.5  " fill-rule="nonzero" fill="#797979" stroke="none" />
</svg>