<?xml version="1.0" encoding="utf-8"?>
<svg version="1.1" xmlns:xlink="http://www.w3.org/1999/xlink" width="12px" height="12px" viewBox="255 286.5  12 12" xmlns="http://www.w3.org/2000/svg">
  <path d="M 261 286.5  C 264.36 286.5  267 289.14  267 292.5  C 267 295.86  264.36 298.5  261 298.5  C 257.64 298.5  255 295.86  255 292.5  C 255 289.14  257.64 286.5  261 286.5  Z " fill-rule="nonzero" fill="#ffffff" stroke="none" />
  <path d="M 261 287  C 264.08 287  266.5 289.42  266.5 292.5  C 266.5 295.58  264.08 298  261 298  C 257.92 298  255.5 295.58  255.5 292.5  C 255.5 289.42  257.92 287  261 287  Z " stroke-width="1" stroke="#797979" fill="none" />
  <path d="M 261 295.5  C 259.32 295.5  258 294.18  258 292.5  C 258 290.82  259.32 289.5  261 289.5  C 262.68 289.5  264 290.82  264 292.5  C 264 294.18  262.68 295.5  261 295.5  " fill-rule="nonzero" fill="#797979" stroke="none" />
</svg>