<?xml version="1.0" encoding="utf-8"?>
<svg version="1.1" xmlns:xlink="http://www.w3.org/1999/xlink" width="12px" height="12px" viewBox="504 286.5  12 12" xmlns="http://www.w3.org/2000/svg">
  <path d="M 510 286.5  C 513.36 286.5  516 289.14  516 292.5  C 516 295.86  513.36 298.5  510 298.5  C 506.64 298.5  504 295.86  504 292.5  C 504 289.14  506.64 286.5  510 286.5  Z " fill-rule="nonzero" fill="#ffffff" stroke="none" />
  <path d="M 510 287  C 513.08 287  515.5 289.42  515.5 292.5  C 515.5 295.58  513.08 298  510 298  C 506.92 298  504.5 295.58  504.5 292.5  C 504.5 289.42  506.92 287  510 287  Z " stroke-width="1" stroke="#797979" fill="none" />
  <path d="M 510 295.5  C 508.32 295.5  507 294.18  507 292.5  C 507 290.82  508.32 289.5  510 289.5  C 511.68 289.5  513 290.82  513 292.5  C 513 294.18  511.68 295.5  510 295.5  " fill-rule="nonzero" fill="#797979" stroke="none" />
</svg>