<?xml version="1.0" encoding="utf-8"?>
<svg version="1.1" xmlns:xlink="http://www.w3.org/1999/xlink" width="12px" height="12px" viewBox="392 286.5  12 12" xmlns="http://www.w3.org/2000/svg">
  <path d="M 398 286.5  C 401.36 286.5  404 289.14  404 292.5  C 404 295.86  401.36 298.5  398 298.5  C 394.64 298.5  392 295.86  392 292.5  C 392 289.14  394.64 286.5  398 286.5  Z " fill-rule="nonzero" fill="#ffffff" stroke="none" />
  <path d="M 398 287  C 401.08 287  403.5 289.42  403.5 292.5  C 403.5 295.58  401.08 298  398 298  C 394.92 298  392.5 295.58  392.5 292.5  C 392.5 289.42  394.92 287  398 287  Z " stroke-width="1" stroke="#797979" fill="none" />
  <path d="M 398 295.5  C 396.32 295.5  395 294.18  395 292.5  C 395 290.82  396.32 289.5  398 289.5  C 399.68 289.5  401 290.82  401 292.5  C 401 294.18  399.68 295.5  398 295.5  " fill-rule="nonzero" fill="#797979" stroke="none" />
</svg>