<?xml version="1.0" encoding="utf-8"?>
<svg version="1.1" xmlns:xlink="http://www.w3.org/1999/xlink" width="12px" height="12px" viewBox="461 1564.5  12 12" xmlns="http://www.w3.org/2000/svg">
  <path d="M 467 1564.5  C 470.36 1564.5  473 1567.14  473 1570.5  C 473 1573.86  470.36 1576.5  467 1576.5  C 463.64 1576.5  461 1573.86  461 1570.5  C 461 1567.14  463.64 1564.5  467 1564.5  Z " fill-rule="nonzero" fill="#ffffff" stroke="none" />
  <path d="M 467 1565  C 470.08 1565  472.5 1567.42  472.5 1570.5  C 472.5 1573.58  470.08 1576  467 1576  C 463.92 1576  461.5 1573.58  461.5 1570.5  C 461.5 1567.42  463.92 1565  467 1565  Z " stroke-width="1" stroke="#797979" fill="none" />
  <path d="M 467 1573.5  C 465.32 1573.5  464 1572.18  464 1570.5  C 464 1568.82  465.32 1567.5  467 1567.5  C 468.68 1567.5  470 1568.82  470 1570.5  C 470 1572.18  468.68 1573.5  467 1573.5  " fill-rule="nonzero" fill="#797979" stroke="none" />
</svg>