<?xml version="1.0" encoding="utf-8"?>
<svg version="1.1" xmlns:xlink="http://www.w3.org/1999/xlink" width="12px" height="12px" viewBox="461 1534.5  12 12" xmlns="http://www.w3.org/2000/svg">
  <path d="M 467 1534.5  C 470.36 1534.5  473 1537.14  473 1540.5  C 473 1543.86  470.36 1546.5  467 1546.5  C 463.64 1546.5  461 1543.86  461 1540.5  C 461 1537.14  463.64 1534.5  467 1534.5  Z " fill-rule="nonzero" fill="#ffffff" stroke="none" />
  <path d="M 467 1535  C 470.08 1535  472.5 1537.42  472.5 1540.5  C 472.5 1543.58  470.08 1546  467 1546  C 463.92 1546  461.5 1543.58  461.5 1540.5  C 461.5 1537.42  463.92 1535  467 1535  Z " stroke-width="1" stroke="#797979" fill="none" />
  <path d="M 467 1543.5  C 465.32 1543.5  464 1542.18  464 1540.5  C 464 1538.82  465.32 1537.5  467 1537.5  C 468.68 1537.5  470 1538.82  470 1540.5  C 470 1542.18  468.68 1543.5  467 1543.5  " fill-rule="nonzero" fill="#797979" stroke="none" />
</svg>