<?xml version="1.0" encoding="utf-8"?>
<svg version="1.1" xmlns:xlink="http://www.w3.org/1999/xlink" width="12px" height="12px" viewBox="1387 1560.5  12 12" xmlns="http://www.w3.org/2000/svg">
  <path d="M 1393 1560.5  C 1396.36 1560.5  1399 1563.14  1399 1566.5  C 1399 1569.86  1396.36 1572.5  1393 1572.5  C 1389.64 1572.5  1387 1569.86  1387 1566.5  C 1387 1563.14  1389.64 1560.5  1393 1560.5  Z " fill-rule="nonzero" fill="#ffffff" stroke="none" />
  <path d="M 1393 1561  C 1396.08 1561  1398.5 1563.42  1398.5 1566.5  C 1398.5 1569.58  1396.08 1572  1393 1572  C 1389.92 1572  1387.5 1569.58  1387.5 1566.5  C 1387.5 1563.42  1389.92 1561  1393 1561  Z " stroke-width="1" stroke="#797979" fill="none" />
  <path d="M 1393 1569.5  C 1391.32 1569.5  1390 1568.18  1390 1566.5  C 1390 1564.82  1391.32 1563.5  1393 1563.5  C 1394.68 1563.5  1396 1564.82  1396 1566.5  C 1396 1568.18  1394.68 1569.5  1393 1569.5  " fill-rule="nonzero" fill="#797979" stroke="none" />
</svg>