<?xml version="1.0" encoding="utf-8"?>
<svg version="1.1" xmlns:xlink="http://www.w3.org/1999/xlink" width="12px" height="12px" viewBox="1387 1530.5  12 12" xmlns="http://www.w3.org/2000/svg">
  <path d="M 1393 1530.5  C 1396.36 1530.5  1399 1533.14  1399 1536.5  C 1399 1539.86  1396.36 1542.5  1393 1542.5  C 1389.64 1542.5  1387 1539.86  1387 1536.5  C 1387 1533.14  1389.64 1530.5  1393 1530.5  Z " fill-rule="nonzero" fill="#ffffff" stroke="none" />
  <path d="M 1393 1531  C 1396.08 1531  1398.5 1533.42  1398.5 1536.5  C 1398.5 1539.58  1396.08 1542  1393 1542  C 1389.92 1542  1387.5 1539.58  1387.5 1536.5  C 1387.5 1533.42  1389.92 1531  1393 1531  Z " stroke-width="1" stroke="#797979" fill="none" />
  <path d="M 1393 1539.5  C 1391.32 1539.5  1390 1538.18  1390 1536.5  C 1390 1534.82  1391.32 1533.5  1393 1533.5  C 1394.68 1533.5  1396 1534.82  1396 1536.5  C 1396 1538.18  1394.68 1539.5  1393 1539.5  " fill-rule="nonzero" fill="#797979" stroke="none" />
</svg>