<?xml version="1.0" encoding="utf-8"?>
<svg version="1.1" xmlns:xlink="http://www.w3.org/1999/xlink" width="12px" height="12px" viewBox="461 1631.5  12 12" xmlns="http://www.w3.org/2000/svg">
  <path d="M 467 1631.5  C 470.36 1631.5  473 1634.14  473 1637.5  C 473 1640.86  470.36 1643.5  467 1643.5  C 463.64 1643.5  461 1640.86  461 1637.5  C 461 1634.14  463.64 1631.5  467 1631.5  Z " fill-rule="nonzero" fill="#ffffff" stroke="none" />
  <path d="M 467 1632  C 470.08 1632  472.5 1634.42  472.5 1637.5  C 472.5 1640.58  470.08 1643  467 1643  C 463.92 1643  461.5 1640.58  461.5 1637.5  C 461.5 1634.42  463.92 1632  467 1632  Z " stroke-width="1" stroke="#797979" fill="none" />
  <path d="M 467 1640.5  C 465.32 1640.5  464 1639.18  464 1637.5  C 464 1635.82  465.32 1634.5  467 1634.5  C 468.68 1634.5  470 1635.82  470 1637.5  C 470 1639.18  468.68 1640.5  467 1640.5  " fill-rule="nonzero" fill="#797979" stroke="none" />
</svg>