<?xml version="1.0" encoding="utf-8"?>
<svg version="1.1" xmlns:xlink="http://www.w3.org/1999/xlink" width="12px" height="12px" viewBox="1387 1590.5  12 12" xmlns="http://www.w3.org/2000/svg">
  <path d="M 1393 1590.5  C 1396.36 1590.5  1399 1593.14  1399 1596.5  C 1399 1599.86  1396.36 1602.5  1393 1602.5  C 1389.64 1602.5  1387 1599.86  1387 1596.5  C 1387 1593.14  1389.64 1590.5  1393 1590.5  Z " fill-rule="nonzero" fill="#ffffff" stroke="none" />
  <path d="M 1393 1591  C 1396.08 1591  1398.5 1593.42  1398.5 1596.5  C 1398.5 1599.58  1396.08 1602  1393 1602  C 1389.92 1602  1387.5 1599.58  1387.5 1596.5  C 1387.5 1593.42  1389.92 1591  1393 1591  Z " stroke-width="1" stroke="#797979" fill="none" />
  <path d="M 1393 1599.5  C 1391.32 1599.5  1390 1598.18  1390 1596.5  C 1390 1594.82  1391.32 1593.5  1393 1593.5  C 1394.68 1593.5  1396 1594.82  1396 1596.5  C 1396 1598.18  1394.68 1599.5  1393 1599.5  " fill-rule="nonzero" fill="#797979" stroke="none" />
</svg>