<?xml version="1.0" encoding="utf-8"?>
<svg version="1.1" xmlns:xlink="http://www.w3.org/1999/xlink" width="170px" height="170px" xmlns="http://www.w3.org/2000/svg">
  <g>
    <path d="M 18.3206027978934 33.0951965024893  C 34.324323223291 12.5354228008122  58.9271221379373 0.5  85 0.5  C 131.668061360702 0.5  169.5 38.331938639298  169.5 85  C 169.5 104.277932231598  162.908383072815 122.971065527824  150.827405167461 137.981156344657  L 85.3157972742781 84.612350568737  A 0.5 0.5 0 0 0 85.304788993466 84.6036369474055 L 18.3206027973418 33.095196503198  Z " fill-rule="nonzero" fill="#ffffff" stroke="none" />
    <path d="M 18.3206027978934 33.0951965024893  C 34.324323223291 12.5354228008122  58.9271221379373 0.5  85 0.5  C 131.668061360702 0.5  169.5 38.331938639298  169.5 85  C 169.5 104.277932231598  162.908383072815 122.971065527824  150.827405167461 137.981156344657  L 85.3157972742781 84.612350568737  A 0.5 0.5 0 0 0 85.304788993466 84.6036369474055 L 18.3206027973418 33.095196503198  Z " stroke-width="1" stroke="#797979" fill="none" />
  </g>
</svg>