<?xml version="1.0" encoding="utf-8"?>
<svg version="1.1" xmlns:xlink="http://www.w3.org/1999/xlink" width="170px" height="170px" xmlns="http://www.w3.org/2000/svg">
  <g>
    <path d="M 168.005920559939 69.1801658305736  C 168.999692866753 74.3944413549837  169.5 79.6911277096048  169.5 85  C 169.5 131.668061360702  131.668061360702 169.5  85 169.5  C 43.4430842953503 169.5  8.08210948224092 139.28950139936  1.55302165318767 98.2986976391719  L 85.0757674115595 85.4942259598054  A 0.5 0.5 0 0 0 85.0965131155606 85.490596798323 L 168.00592055631 69.1801658115316  Z " fill-rule="nonzero" fill="#ffffff" stroke="none" />
    <path d="M 168.005920559939 69.1801658305736  C 168.999692866753 74.3944413549837  169.5 79.6911277096048  169.5 85  C 169.5 131.668061360702  131.668061360702 169.5  85 169.5  C 43.4430842953503 169.5  8.08210948224092 139.28950139936  1.55302165318767 98.2986976391719  L 85.0757674115595 85.4942259598054  A 0.5 0.5 0 0 0 85.0965131155606 85.490596798323 L 168.00592055631 69.1801658115316  Z " stroke-width="1" stroke="#797979" fill="none" />
  </g>
</svg>