<?xml version="1.0" encoding="utf-8"?>
<svg version="1.1" xmlns:xlink="http://www.w3.org/1999/xlink" width="170px" height="170px" xmlns="http://www.w3.org/2000/svg">
  <g>
    <path d="M 149.194711439497 139.948062215545  C 133.146755487206 158.697021101991  109.695806791262 169.5  85 169.5  C 38.331938639298 169.5  0.5 131.668061360702  0.5 85  C 0.5 64.2722601449963  8.1182997600084 44.2736737018668  21.8957135577179 28.8030312548785  L 84.6652699288499 85.3714239888158  A 0.5 0.5 0 0 0 84.6771168761222 85.3817675841594 L 149.194711439827 139.948062215159  Z " fill-rule="nonzero" fill="#ffffff" stroke="none" />
    <path d="M 149.194711439497 139.948062215545  C 133.146755487206 158.697021101991  109.695806791262 169.5  85 169.5  C 38.331938639298 169.5  0.5 131.668061360702  0.5 85  C 0.5 64.2722601449963  8.1182997600084 44.2736737018668  21.8957135577179 28.8030312548785  L 84.6652699288499 85.3714239888158  A 0.5 0.5 0 0 0 84.6771168761222 85.3817675841594 L 149.194711439827 139.948062215159  Z " stroke-width="1" stroke="#797979" fill="none" />
  </g>
</svg>