<?xml version="1.0" encoding="utf-8"?>
<svg version="1.1" xmlns:xlink="http://www.w3.org/1999/xlink" width="170px" height="170px" xmlns="http://www.w3.org/2000/svg">
  <g>
    <path d="M 32.0186480609754 150.827250742316  C 12.0966038674164 134.79335825033  0.5 110.590838821911  0.5 85  C 0.5 38.331938639298  38.331938639298 0.5  85 0.5  C 105.863210081259 0.5  125.982653963745 8.21799085518377  141.489712380447 22.1576363791347  L 84.6301360731453 84.6635469191528  A 0.5 0.5 0 0 0 84.6086414514971 84.6888111722544 L 32.0186480615508 150.827250742779  Z " fill-rule="nonzero" fill="#ffffff" stroke="none" />
    <path d="M 32.0186480609754 150.827250742316  C 12.0966038674164 134.79335825033  0.5 110.590838821911  0.5 85  C 0.5 38.331938639298  38.331938639298 0.5  85 0.5  C 105.863210081259 0.5  125.982653963745 8.21799085518377  141.489712380447 22.1576363791347  L 84.6301360731453 84.6635469191528  A 0.5 0.5 0 0 0 84.6086414514971 84.6888111722544 L 32.0186480615508 150.827250742779  Z " stroke-width="1" stroke="#797979" fill="none" />
  </g>
</svg>