<?xml version="1.0" encoding="utf-8"?>
<svg version="1.1" xmlns:xlink="http://www.w3.org/1999/xlink" width="12px" height="12px" viewBox="304 241.5  12 12" xmlns="http://www.w3.org/2000/svg">
  <path d="M 310 241.5  C 313.36 241.5  316 244.14  316 247.5  C 316 250.86  313.36 253.5  310 253.5  C 306.64 253.5  304 250.86  304 247.5  C 304 244.14  306.64 241.5  310 241.5  Z " fill-rule="nonzero" fill="#ffffff" stroke="none" />
  <path d="M 310 242  C 313.08 242  315.5 244.42  315.5 247.5  C 315.5 250.58  313.08 253  310 253  C 306.92 253  304.5 250.58  304.5 247.5  C 304.5 244.42  306.92 242  310 242  Z " stroke-width="1" stroke="#797979" fill="none" />
  <path d="M 310 250.5  C 308.32 250.5  307 249.18  307 247.5  C 307 245.82  308.32 244.5  310 244.5  C 311.68 244.5  313 245.82  313 247.5  C 313 249.18  311.68 250.5  310 250.5  " fill-rule="nonzero" fill="#797979" stroke="none" />
</svg>