<?xml version="1.0" encoding="utf-8"?>
<svg version="1.1" xmlns:xlink="http://www.w3.org/1999/xlink" width="12px" height="12px" viewBox="414 241.5  12 12" xmlns="http://www.w3.org/2000/svg">
  <path d="M 420 241.5  C 423.36 241.5  426 244.14  426 247.5  C 426 250.86  423.36 253.5  420 253.5  C 416.64 253.5  414 250.86  414 247.5  C 414 244.14  416.64 241.5  420 241.5  Z " fill-rule="nonzero" fill="#ffffff" stroke="none" />
  <path d="M 420 242  C 423.08 242  425.5 244.42  425.5 247.5  C 425.5 250.58  423.08 253  420 253  C 416.92 253  414.5 250.58  414.5 247.5  C 414.5 244.42  416.92 242  420 242  Z " stroke-width="1" stroke="#797979" fill="none" />
  <path d="M 420 250.5  C 418.32 250.5  417 249.18  417 247.5  C 417 245.82  418.32 244.5  420 244.5  C 421.68 244.5  423 245.82  423 247.5  C 423 249.18  421.68 250.5  420 250.5  " fill-rule="nonzero" fill="#797979" stroke="none" />
</svg>