<?xml version="1.0" encoding="utf-8"?>
<svg version="1.1" xmlns:xlink="http://www.w3.org/1999/xlink" width="35px" height="35px" xmlns="http://www.w3.org/2000/svg">
  <g transform="matrix(1 0 0 1 -26 -57 )">
    <path d="M 43.5 57  C 53.3 57  61 64.7  61 74.5  C 61 84.3  53.3 92  43.5 92  C 33.7 92  26 84.3  26 74.5  C 26 64.7  33.7 57  43.5 57  Z " fill-rule="nonzero" fill="#ffffff" stroke="none" />
    <path d="M 43.5 57.5  C 53.02 57.5  60.5 64.98  60.5 74.5  C 60.5 84.02  53.02 91.5  43.5 91.5  C 33.98 91.5  26.5 84.02  26.5 74.5  C 26.5 64.98  33.98 57.5  43.5 57.5  Z " stroke-width="1" stroke="#02a7f0" fill="none" />
  </g>
</svg>