<?xml version="1.0" encoding="utf-8"?>
<svg version="1.1" xmlns:xlink="http://www.w3.org/1999/xlink" width="125px" height="52px" xmlns="http://www.w3.org/2000/svg">
  <defs>
    <mask fill="white" id="clip2">
      <path d="M 0 44.3529411764706  L 0 7.64705882352941  C 0 3.36470588235301  3.0898876404495 0  7.02247191011236 0  L 117.977528089888 0  C 121.91011235955 0  125 3.36470588235301  125 7.64705882352941  L 125 44.3529411764706  C 125 48.635294117647  121.91011235955 52  117.977528089888 52  L 89.384537984236 52  L 7.02247191011236 52  C 3.0898876404495 52  0 48.635294117647  0 44.3529411764706  Z " fill-rule="evenodd" />
    </mask>
  </defs>
  <g transform="matrix(1 0 0 1 -503 -556 )">
    <path d="M 0 44.3529411764706  L 0 7.64705882352941  C 0 3.36470588235301  3.0898876404495 0  7.02247191011236 0  L 117.977528089888 0  C 121.91011235955 0  125 3.36470588235301  125 7.64705882352941  L 125 44.3529411764706  C 125 48.635294117647  121.91011235955 52  117.977528089888 52  L 89.384537984236 52  L 7.02247191011236 52  C 3.0898876404495 52  0 48.635294117647  0 44.3529411764706  Z " fill-rule="nonzero" fill="#ffffff" stroke="none" transform="matrix(1 0 0 1 503 556 )" />
    <path d="M 0 44.3529411764706  L 0 7.64705882352941  C 0 3.36470588235301  3.0898876404495 0  7.02247191011236 0  L 117.977528089888 0  C 121.91011235955 0  125 3.36470588235301  125 7.64705882352941  L 125 44.3529411764706  C 125 48.635294117647  121.91011235955 52  117.977528089888 52  L 89.384537984236 52  L 7.02247191011236 52  C 3.0898876404495 52  0 48.635294117647  0 44.3529411764706  Z " stroke-width="2" stroke="#797979" fill="none" transform="matrix(1 0 0 1 503 556 )" mask="url(#clip2)" />
  </g>
</svg>