<svg t="1652420958950" class="icon" viewBox="0 0 1024 1024" version="1.1" xmlns="http://www.w3.org/2000/svg" p-id="1773" width="200" height="200"><path d="M431.452117 848.420508H193.457489a55.554553 55.554553 0 0 1-55.419712-55.554553V166.528819a55.419712 55.419712 0 0 1 55.419712-55.419712h606.78517a55.419712 55.419712 0 0 1 55.419712 55.419712v169.360483a55.554553 55.554553 0 0 0 111.109106 0V166.528819A166.66366 166.66366 0 0 0 800.107817 0h-606.785169A166.66366 166.66366 0 0 0 26.92867 166.528819V792.865955a166.798501 166.798501 0 0 0 166.528819 166.66366H431.452117a55.554553 55.554553 0 1 0 0-111.109107z" p-id="1774" fill="#d4237a"></path><path d="M980.255592 931.212974L862.943793 779.112158A265.23254 265.23254 0 1 0 777.184822 849.499238l115.0195 149.943357a55.554553 55.554553 0 1 0 88.05127-67.420574z m-343.035882-165.854613A154.258274 154.258274 0 0 1 657.041359 458.459906a148.325264 148.325264 0 0 1 20.361013 1.348412 154.258274 154.258274 0 1 1-40.452345 305.819725z" p-id="1775" fill="#d4237a"></path></svg>