<svg t="1652873618123" class="icon" viewBox="0 0 1024 1024" version="1.1" xmlns="http://www.w3.org/2000/svg" p-id="2364" width="200" height="200"><path d="M313.3 711.2h391.5c13 0 23.5 10.5 23.5 23.5s-10.5 23.5-23.5 23.5H313.3c-13 0-23.5-10.5-23.5-23.5s10.5-23.5 23.5-23.5zM760 165.6h-15.7H760z m-438.1 642h422.5c17.3 0 31.3-14 31.3-31.3V281.8c0-13 10.5-23.5 23.5-23.5s23.5 10.5 23.5 23.5V792c0 34.6-28 62.6-62.6 62.6H259c-34.6 0-62.6-28-62.6-62.6V228.2c0-34.6 28-62.6 62.6-62.6h407.2c34.6 0 62.6 28 62.6 62.6v373.3c0 34.6-28 62.6-62.6 62.6H274.5c-17.3 0-31.3 14-31.3 31.3v80.8c0 17.3 14 31.3 31.3 31.3h47.4z" p-id="2365" fill="#d4237a"></path></svg>