<svg t="1652929840410" class="icon" viewBox="0 0 1024 1024" version="1.1" xmlns="http://www.w3.org/2000/svg" p-id="4195" width="200" height="200"><path d="M469.3 746.7h277.3V704H469.3v42.7zM746.7 576H469.3v42.7h277.3V576zM896 234.7c11.8 0 21.3-9.6 21.3-21.3V106.7c0-23.6-19.1-42.7-42.7-42.7H149.3c-23.6 0-42.7 19.1-42.7 42.7v810.7c0 23.6 19.1 42.7 42.7 42.7h725.3c23.6 0 42.7-19.1 42.7-42.7V384c0-11.8-9.6-21.3-21.3-21.3s-21.3 9.6-21.3 21.3v512c0 11.8-9.6 21.3-21.3 21.3H170.7c-11.8 0-21.3-9.6-21.3-21.3V128c0-11.8 9.6-21.3 21.3-21.3h682.7c11.8 0 21.3 9.6 21.3 21.3v85.3c0 11.8 9.5 21.4 21.3 21.4zM746.7 405.3H469.3V448h277.3v-42.7z m-341.4 21.4h-42.7V256h-85.3v42.7H320v128h-42.7v42.7h128v-42.7z m-42.6 170.6V640h42.7v-85.3h-128V640H320v-42.7h42.7z m0 42.7H320v42.7h42.7V640z m384-362.7H469.3V320h277.3v-42.7zM277.3 682.7V768h128v-42.7H320v-42.7h-42.7z" fill="#1296db" p-id="4196" data-spm-anchor-id="a313x.7781069.0.i2" class="selected"></path></svg>