<svg t="1652928051861" class="icon" viewBox="0 0 1024 1024" version="1.1" xmlns="http://www.w3.org/2000/svg" p-id="2016" width="200" height="200"><path d="M1020.16 774.4l-121.6-209.92c-5.12-7.68-12.8-12.8-21.76-12.8h-47.36l-75.52-304.64c-3.84-15.36-12.8-28.16-26.88-37.12-17.92-10.24-39.68-14.08-62.72-8.96l-101.12 25.6c-23.04 5.12-40.96 19.2-51.2 37.12l-14.08-128c-6.4-40.96-42.24-67.84-84.48-64l-102.4 10.24c-20.48 1.28-39.68 11.52-52.48 28.16-1.28 1.28-2.56 3.84-3.84 5.12V76.8c0-42.24-34.56-76.8-76.8-76.8H76.8C34.56 0 0 34.56 0 76.8v870.4c0 42.24 34.56 76.8 76.8 76.8h102.4c42.24 0 76.8-34.56 76.8-76.8V280.32l71.68 677.12c3.84 38.4 35.84 65.28 76.8 65.28h7.68l103.68-10.24c32-3.84 57.6-26.88 65.28-55.04l30.72 52.48c5.12 7.68 12.8 12.8 21.76 12.8h243.2c8.96 0 17.92-5.12 21.76-12.8l121.6-211.2c5.12-6.4 5.12-16.64 0-24.32zM204.8 947.2c0 14.08-11.52 25.6-25.6 25.6H76.8c-14.08 0-25.6-11.52-25.6-25.6V76.8c0-14.08 11.52-25.6 25.6-25.6h102.4c14.08 0 25.6 11.52 25.6 25.6v870.4z m371.2-672l99.84-24.32c10.24-2.56 19.2 0 23.04 2.56 2.56 1.28 3.84 3.84 5.12 5.12L776.96 550.4H633.6c-5.12 0-10.24 1.28-14.08 3.84L554.24 294.4c-1.28-5.12 7.68-15.36 21.76-19.2z m6.4 340.48l-26.88 47.36-28.16-268.8 55.04 221.44z m-72.96 346.88l-102.4 10.24c-15.36 1.28-26.88-7.68-28.16-19.2L294.4 156.16c0-5.12 1.28-10.24 5.12-15.36 3.84-5.12 10.24-8.96 17.92-8.96l102.4-10.24c14.08-1.28 26.88 7.68 28.16 19.2l62.72 596.48-21.76 37.12c-5.12 7.68-5.12 17.92 0 25.6l34.56 60.16 8.96 78.08c1.28 11.52-8.96 23.04-23.04 24.32z m352 10.24H648.96l-106.24-185.6 15.36-26.88c1.28-2.56 2.56-3.84 3.84-6.4l69.12-120.32c0-1.28 1.28-1.28 1.28-2.56l16.64-28.16h213.76l106.24 184.32L861.44 972.8z" fill="#d4237a" p-id="2017"></path><path d="M755.2 697.6c-49.92 0-89.6 39.68-89.6 89.6s39.68 89.6 89.6 89.6 89.6-39.68 89.6-89.6-39.68-89.6-89.6-89.6z m0 128c-21.76 0-38.4-16.64-38.4-38.4s16.64-38.4 38.4-38.4 38.4 16.64 38.4 38.4-16.64 38.4-38.4 38.4z" fill="#d4237a" p-id="2018"></path></svg>