<?xml version="1.0" encoding="utf-8"?>
<svg version="1.1" xmlns:xlink="http://www.w3.org/1999/xlink" width="11px" height="11px" xmlns="http://www.w3.org/2000/svg">
  <g transform="matrix(1 0 0 1 -1004 -1850 )">
    <path d="M 1009.5 1850  C 1012.58 1850  1015 1852.42  1015 1855.5  C 1015 1858.58  1012.58 1861  1009.5 1861  C 1006.42 1861  1004 1858.58  1004 1855.5  C 1004 1852.42  1006.42 1850  1009.5 1850  Z " fill-rule="nonzero" fill="#ffffff" stroke="none" />
    <path d="M 1009.5 1850.5  C 1012.3 1850.5  1014.5 1852.7  1014.5 1855.5  C 1014.5 1858.3  1012.3 1860.5  1009.5 1860.5  C 1006.7 1860.5  1004.5 1858.3  1004.5 1855.5  C 1004.5 1852.7  1006.7 1850.5  1009.5 1850.5  Z " stroke-width="1" stroke="#797979" fill="none" />
  </g>
</svg>