<?xml version="1.0" encoding="utf-8"?>
<svg version="1.1" xmlns:xlink="http://www.w3.org/1999/xlink" width="12px" height="12px" viewBox="121 276.5  12 12" xmlns="http://www.w3.org/2000/svg">
  <path d="M 127 276.5  C 130.36 276.5  133 279.14  133 282.5  C 133 285.86  130.36 288.5  127 288.5  C 123.64 288.5  121 285.86  121 282.5  C 121 279.14  123.64 276.5  127 276.5  Z " fill-rule="nonzero" fill="#ffffff" stroke="none" />
  <path d="M 127 277  C 130.08 277  132.5 279.42  132.5 282.5  C 132.5 285.58  130.08 288  127 288  C 123.92 288  121.5 285.58  121.5 282.5  C 121.5 279.42  123.92 277  127 277  Z " stroke-width="1" stroke="#797979" fill="none" />
  <path d="M 127 285.5  C 125.32 285.5  124 284.18  124 282.5  C 124 280.82  125.32 279.5  127 279.5  C 128.68 279.5  130 280.82  130 282.5  C 130 284.18  128.68 285.5  127 285.5  " fill-rule="nonzero" fill="#797979" stroke="none" />
</svg>