<svg t="1652425458300" class="icon" viewBox="0 0 1024 1024" version="1.1" xmlns="http://www.w3.org/2000/svg" p-id="10760" width="200" height="200"><path d="M483.5 555c-10.8 0-20.5-2.2-28-7.5L277.8 438.7c-15.1-9.7-18.3-24.8-18.3-33.4 0-8.6 2.2-23.7 18.3-33.4l177.6-108.7c15.1-9.7 40.9-9.7 57.1 0l177.6 108.7c16.1 9.7 18.3 24.8 18.3 33.4 0 8.6-2.2 23.7-18.3 33.4L512.5 547.4c-8.6 5.4-19.4 7.6-29 7.6M479.8 620.7c-7 0-14.1-1.4-18.9-4.1L293.2 513.8h-37.9c0 8.7 3.2 22.7 18.4 31.4l178.5 109.3c7.6 4.3 18.4 7.6 28.1 7.6M479.8 711.6c-7.4 0.1-14.9-1.2-20-4l-171-105h-34.6c0 8.7 2.2 23.8 18.4 33.5l178.5 109.3c7.6 4.3 18.4 7.6 28.1 7.6M634.9 668.2c-12.7 0-23.2-10.4-23.2-22 0-12.7 10.4-22 23.2-22 12.7 0 23.2 10.4 23.2 22-0.1 11.6-10.5 22-23.2 22z m0-70.6c-26.6 0-48.6 22-48.6 48.6s22 48.6 48.6 48.6 48.6-22 48.6-48.6c0-27.7-22-48.6-48.6-48.6z m103 63.7c-11.6 1.2-23.2 6.9-31.3 16.2-9.3 9.3-15.1 22-15.1 35.9 0 5.8 1.2 11.6 2.3 15l-22 11.6c-2.3-2.3-5.8-4.6-9.3-8.1-10.4-6.9-19.7-11.6-28.9-11.6-9.3 0-18.5 3.5-28.9 11.6-3.5 2.3-5.8 4.6-9.3 8.1l-20.8-11.6c1.2-3.5 2.3-9.3 2.3-15 0-13.9-4.6-26.6-15.1-35.9-8.1-8.1-18.5-13.9-31.3-16.2-1.2-4.6-1.2-10.4-1.2-16.2 0-4.6 1.2-11.6 1.2-16.2 11.6-1.2 23.2-6.9 31.3-16.2 9.3-9.3 15.1-22 15.1-35.9 0-5.8-1.2-11.6-2.3-15l23.2-12.7c2.3 2.3 5.8 4.6 9.3 6.9 10.4 6.9 19.7 10.4 28.9 10.4 9.3 0 18.5-3.5 28.9-10.4 3.5-2.3 5.8-4.6 9.3-6.9l22 11.6c-1.2 3.5-2.3 9.3-2.3 15.1 0 13.9 4.6 26.6 15 35.9 8.1 8.1 18.5 13.9 31.3 16.2 1.2 4.6 1.2 10.4 1.2 16.2-1.2 6.8-2.4 12.6-3.5 17.2z m25.5-40.5c-1.2-4.6-2.3-8.1-5.8-11.6s-6.9-4.6-11.6-4.6h-1.2c-15 0-26.6-11.6-26.6-26.6 0-3.5 1.2-8.1 2.3-10.4 3.5-8.1 1.2-18.5-6.9-24.3l-31.3-17.4h-1.2c-2.3-1.2-5.8-1.2-8.1-1.2-5.8 0-11.6 2.3-16.2 6.9-4.6 4.6-15.1 12.7-20.8 12.7-6.9 0-16.2-6.9-22-12.7-3.5-4.6-9.3-6.9-16.2-6.9-2.3 0-5.8 0-8.1 1.2h-1.2l-32.4 17.4c-8.1 5.8-10.4 16.2-6.9 24.3 1.2 1.2 2.3 5.8 2.3 10.4 0 15-11.6 26.6-26.6 26.6h-1.2c-4.6 0-8.1 2.3-10.4 4.6-2.3 2.3-4.6 6.9-5.8 11.6 0 1.2-2.3 15-2.3 25.5s2.3 23.2 2.3 25.5c1.2 4.6 2.3 8.1 5.8 11.6s6.9 4.6 10.4 4.6h1.2c15.1 0 26.6 11.6 26.6 26.6 0 3.5-1.2 8.1-2.3 10.4-3.5 8.1-1.2 18.5 6.9 24.3l31.3 17.4c2.3 1.2 5.8 1.2 8.1 1.2 5.8 0 11.6-2.3 16.2-6.9 4.6-4.6 15.1-12.7 22-12.7s17.4 8.1 22 12.7c3.5 4.6 10.4 6.9 16.2 6.9 2.3 0 5.8 0 8.1-1.2h1.2l32.4-17.4c8.1-5.8 10.4-16.2 6.9-24.3-1.2-1.2-2.3-5.8-2.3-10.4 0-15.1 11.6-26.6 26.6-26.6h1.2c4.6 0 8.1-1.2 11.6-4.6 2.3-2.3 4.6-6.9 5.8-11.6 0 0 2.3-13.9 2.3-25.5s-2.3-24.4-2.3-25.5z m0 0" fill="#1296db" p-id="10761"></path><path d="M671.9 772.8c-6.1 0-15-2.3-20-8.6-5.5-5.4-14-11-18.2-11-4.3 0-13 5.8-18.5 11.3-5.4 5.4-12.4 8.4-19.7 8.4-2.8 0-7 0-10.3-1.7l-0.2-0.2-31.5-17.5-0.2-0.2c-9.6-6.9-13.2-19.6-8.6-30.3l0.1-0.3c0.8-1.7 1.8-5.5 1.8-8.2 0-12.3-9.3-21.6-21.6-21.6h-1.2c-5.3 0-9.9-2-14-6.1-4.5-4.5-5.9-9.1-7.1-13.9l-0.1-0.6v-0.6c0-0.5-0.3-2.6-0.5-4.4-0.7-5.5-1.8-13.7-1.8-21.1 0-8.1 1.3-18.3 2-23.1 0.1-1 0.3-2.1 0.3-2.5v-0.5l0.1-0.6c1.4-5.6 4.1-10.9 7.1-13.9 4-4 8.8-6.1 14-6.1h1.2c12.3 0 21.6-9.3 21.6-21.6 0-3.4-0.7-6.3-1.1-7.2l-0.4-0.4-0.4-0.9c-4.6-10.7-1-23.5 8.6-30.3l0.5-0.3 33.5-18h1.4c3.1-1.2 6.7-1.2 9.1-1.2 8.5 0 15.6 3.1 20 8.6 6.6 6.5 14 11 18.2 11 3 0 11.6-5.6 17.3-11.3 5.4-5.4 12.4-8.4 19.7-8.4 2.4 0 6 0 9.1 1.2h1.4l32.9 18.3c9.6 6.9 13.2 19.6 8.6 30.3l-0.1 0.3c-0.8 1.7-1.8 5.5-1.8 8.2 0 12.3 9.3 21.6 21.6 21.6h1.2c6.2 0 10.9 1.9 15.1 6.1 4.5 4.5 5.9 9.1 7.1 13.9l0.1 0.6v0.5c0 0.4 0.2 1.3 0.3 2.1 0.7 4.7 2 14.4 2 23.5 0 11.9-2.3 25.7-2.4 26.3l-0.1 0.4c-1.4 5.6-4.1 10.9-7.1 13.9-4.2 4.2-8.9 6.1-15.1 6.1h-1.2c-12.3 0-21.6 9.3-21.6 21.6 0 3.4 0.7 6.3 1.1 7.2l0.4 0.4 0.4 0.9c4.6 10.7 1 23.5-8.6 30.3l-0.5 0.3-33.5 18H681c-3.1 1.3-6.6 1.3-9.1 1.3z m-38.2-29.7c11.2 0 25 13.6 25.5 14.2l0.3 0.3 0.2 0.3c2.1 2.9 7.3 4.9 12.2 4.9 1.6 0 4.6 0 5.9-0.6l1.1-0.5h1.1l31-16.6c6.2-4.6 7.3-12.1 5.2-17.6-2.3-3.4-2.9-9.5-2.9-12.9 0-17.7 13.9-31.6 31.6-31.6h1.2c3.6 0 5.7-0.8 8-3.2 1.4-1.4 3.4-5 4.4-9.1 0.3-1.7 2.2-14.2 2.2-24.4 0-8.4-1.3-17.7-1.9-22.1-0.2-1.3-0.3-2-0.3-2.6-1.1-4.1-2-6.5-4.4-8.8-2.3-2.3-4.4-3.2-8-3.2h-1.2c-17.7 0-31.6-13.9-31.6-31.6 0-3.9 1.2-9.2 2.8-12.5 2.3-5.5 1.3-13.3-5.1-18l-30-16.6h-1l-1.1-0.5c-1.3-0.6-4.3-0.6-5.9-0.6-4.6 0-9.1 1.9-12.7 5.5-0.1 0.1-14.5 14.2-24.4 14.2-10.5 0-22.2-10.9-25.5-14.2l-0.3-0.3-0.2-0.3c-3.1-4.1-8.3-4.9-12.2-4.9-1.6 0-4.6 0-5.9 0.6l-1.1 0.5h-1.1l-31 16.6c-6.2 4.6-7.3 12.1-5.2 17.6 2.3 3.4 2.9 9.5 2.9 12.9 0 17.7-13.9 31.6-31.6 31.6h-1.2c-2.5 0-4.8 1.1-6.9 3.2-1.4 1.4-3.3 4.8-4.4 8.9-0.1 0.5-0.2 1.4-0.4 2.9-0.6 4.6-1.9 14.3-1.9 21.8 0 6.8 1 14.6 1.7 19.8 0.3 2.5 0.5 3.9 0.6 4.9 1 4.1 2 6.4 4.3 8.8 2.8 2.8 5.2 3.2 6.9 3.2h1.2c17.7 0 31.6 13.9 31.6 31.6 0 3.9-1.2 9.2-2.8 12.5-2.3 5.5-1.3 13.3 5.1 18l30.9 17.1c1.3 0.6 4.2 0.6 5.8 0.6 4.6 0 9.1-1.9 12.7-5.5 0.9-0.7 14.6-14.3 25.8-14.3z m90.7-21.2z m44-101.1z m-265.9 0z m93.9 125.4l-27.8-15.4 1.3-3.9c0.9-2.8 2.1-8.1 2.1-13.5 0-13.3-4.6-24.4-13.4-32.1l-0.2-0.2c-7.8-7.8-17.4-12.8-28.6-14.8l-3.2-0.6-0.8-3.1c-1.3-5.2-1.3-11.4-1.3-17.4 0-2.6 0.3-5.6 0.6-8.6 0.3-2.7 0.6-5.5 0.6-7.6v-4.5l4.5-0.5c10.6-1.1 20.8-6.4 28-14.5l0.2-0.2c8.8-8.8 13.6-20.2 13.6-32.3 0-5.4-1.1-10.6-2.1-13.5l-1.3-4 30.1-16.5 2.7 2.7c2 2 5.3 4.2 8.5 6.3 9.8 6.6 18.2 9.6 26.2 9.6s16.4-3 26.2-9.6c1.6-1 2.9-2.1 4.3-3.2 1.5-1.2 3.1-2.4 5-3.7l2.5-1.6 28.4 14.9-1.3 4c-0.9 2.8-2.1 8.1-2.1 13.5 0 13.3 4.6 24.4 13.4 32.1l0.2 0.2c7.8 7.8 17.4 12.8 28.6 14.8l3.2 0.6 0.8 3.1c1.3 5.2 1.3 11.4 1.3 17.4v0.4l-0.1 0.4c-1.2 7-2.4 13-3.6 17.8l-0.9 3.4-3.5 0.4c-10.6 1.1-20.8 6.4-28 14.5l-0.2 0.2c-8.8 8.8-13.6 20.3-13.6 32.4 0 5.4 1.1 10.6 2.1 13.5l1.3 4-29 15.3-2.6-2.6c-0.9-0.9-2-1.8-3.3-2.9-1.7-1.4-3.6-2.9-5.5-4.9-11.1-7.3-18.8-10.5-25.8-10.5-8.4 0-16.6 3.3-25.9 10.5l-0.3 0.2c-3.1 2-5.1 4.1-8.5 7.5l-2.8 2.5z m37.3-30.9c11.5 0 22.5 6.3 31.7 12.4l0.4 0.3 0.3 0.4c1.7 1.7 3.5 3.2 5.2 4.5 0.4 0.4 0.9 0.7 1.3 1.1l15.4-8.1c-0.8-3.5-1.4-8-1.4-12.5 0-14.7 5.8-28.7 16.4-39.3 8-9.1 19.1-15.2 30.8-17.3 0.8-3.8 1.7-8.2 2.6-13.3 0-4 0-8.1-0.5-11.6-11.7-2.7-21.9-8.4-30.4-16.8-10.9-9.7-16.6-23.4-16.6-39.5 0-4.5 0.6-9 1.4-12.5l-15.7-8.3c-0.6 0.5-1.3 1-1.9 1.5-1.5 1.2-3.1 2.4-5 3.7-11.5 7.7-21.6 11.3-31.7 11.3-10.1 0-20.2-3.6-31.7-11.3-2.5-1.6-5-3.3-7.1-5l-16.6 9.1c0.8 3.5 1.5 8 1.5 12.6 0 14.7-5.8 28.7-16.4 39.3-7.8 8.9-18.6 15-30.1 17.1-0.1 1.4-0.3 2.8-0.4 4.2-0.3 2.7-0.6 5.5-0.6 7.6 0 4.2 0 8.4 0.5 12 11.7 2.7 21.9 8.4 30.4 16.8 10.9 9.7 16.6 23.4 16.6 39.5 0 4.6-0.6 9-1.5 12.6l14.1 7.8c2.3-2.2 4.4-4.1 7.2-6 11-8.3 21.1-12.3 31.8-12.3z m1.2-15.4c-29.6 0-53.6-24.1-53.6-53.6 0-29.6 24.1-53.6 53.6-53.6 30.1 0 53.6 23.6 53.6 53.6 0 29.5-24.1 53.6-53.6 53.6z m0-97.3c-24.1 0-43.6 19.6-43.6 43.6s19.6 43.6 43.6 43.6c24.1 0 43.6-19.6 43.6-43.6 0-24.4-19.2-43.6-43.6-43.6z m0 70.6c-15.3 0-28.2-12.4-28.2-27 0-15.1 12.4-27 28.2-27 15.3 0 28.2 12.4 28.2 27-0.1 14.7-13 27-28.2 27z m0-43.9c-10.3 0-18.2 7.3-18.2 17 0 9.1 8.5 17 18.2 17s18.2-7.9 18.2-17c-0.1-9.1-8.6-17-18.2-17z" fill="#1296db" p-id="10762"></path></svg>