<?xml version="1.0" encoding="utf-8"?>
<svg version="1.1" xmlns:xlink="http://www.w3.org/1999/xlink" width="6px" height="6px" xmlns="http://www.w3.org/2000/svg">
  <g transform="matrix(1 0 0 1 -88 -212 )">
    <path d="M 91 212  C 92.68 212  94 213.32  94 215  C 94 216.68  92.68 218  91 218  C 89.32 218  88 216.68  88 215  C 88 213.32  89.32 212  91 212  Z " fill-rule="nonzero" fill="#ff0000" stroke="none" />
    <path d="M 91 212.5  C 92.4 212.5  93.5 213.6  93.5 215  C 93.5 216.4  92.4 217.5  91 217.5  C 89.6 217.5  88.5 216.4  88.5 215  C 88.5 213.6  89.6 212.5  91 212.5  Z " stroke-width="1" stroke="#ff0000" fill="none" />
  </g>
</svg>