<?xml version="1.0" encoding="utf-8"?>
<svg version="1.1" xmlns:xlink="http://www.w3.org/1999/xlink" width="12px" height="12px" viewBox="301 219.5  12 12" xmlns="http://www.w3.org/2000/svg">
  <path d="M 307 219.5  C 310.36 219.5  313 222.14  313 225.5  C 313 228.86  310.36 231.5  307 231.5  C 303.64 231.5  301 228.86  301 225.5  C 301 222.14  303.64 219.5  307 219.5  Z " fill-rule="nonzero" fill="#ffffff" stroke="none" />
  <path d="M 307 220  C 310.08 220  312.5 222.42  312.5 225.5  C 312.5 228.58  310.08 231  307 231  C 303.92 231  301.5 228.58  301.5 225.5  C 301.5 222.42  303.92 220  307 220  Z " stroke-width="1" stroke="#797979" fill="none" />
  <path d="M 307 228.5  C 305.32 228.5  304 227.18  304 225.5  C 304 223.82  305.32 222.5  307 222.5  C 308.68 222.5  310 223.82  310 225.5  C 310 227.18  308.68 228.5  307 228.5  " fill-rule="nonzero" fill="#797979" stroke="none" />
</svg>