<?xml version="1.0" encoding="utf-8"?>
<svg version="1.1" xmlns:xlink="http://www.w3.org/1999/xlink" width="12px" height="12px" viewBox="239 103.5  12 12" xmlns="http://www.w3.org/2000/svg">
  <path d="M 245 103.5  C 248.36 103.5  251 106.14  251 109.5  C 251 112.86  248.36 115.5  245 115.5  C 241.64 115.5  239 112.86  239 109.5  C 239 106.14  241.64 103.5  245 103.5  Z " fill-rule="nonzero" fill="#ffffff" stroke="none" />
  <path d="M 245 104  C 248.08 104  250.5 106.42  250.5 109.5  C 250.5 112.58  248.08 115  245 115  C 241.92 115  239.5 112.58  239.5 109.5  C 239.5 106.42  241.92 104  245 104  Z " stroke-width="1" stroke="#797979" fill="none" />
  <path d="M 245 112.5  C 243.32 112.5  242 111.18  242 109.5  C 242 107.82  243.32 106.5  245 106.5  C 246.68 106.5  248 107.82  248 109.5  C 248 111.18  246.68 112.5  245 112.5  " fill-rule="nonzero" fill="#797979" stroke="none" />
</svg>