<?xml version="1.0" encoding="utf-8"?>
<svg version="1.1" xmlns:xlink="http://www.w3.org/1999/xlink" width="12px" height="12px" viewBox="274 169.5  12 12" xmlns="http://www.w3.org/2000/svg">
  <path d="M 280 169.5  C 283.36 169.5  286 172.14  286 175.5  C 286 178.86  283.36 181.5  280 181.5  C 276.64 181.5  274 178.86  274 175.5  C 274 172.14  276.64 169.5  280 169.5  Z " fill-rule="nonzero" fill="#ffffff" stroke="none" />
  <path d="M 280 170  C 283.08 170  285.5 172.42  285.5 175.5  C 285.5 178.58  283.08 181  280 181  C 276.92 181  274.5 178.58  274.5 175.5  C 274.5 172.42  276.92 170  280 170  Z " stroke-width="1" stroke="#797979" fill="none" />
  <path d="M 280 178.5  C 278.32 178.5  277 177.18  277 175.5  C 277 173.82  278.32 172.5  280 172.5  C 281.68 172.5  283 173.82  283 175.5  C 283 177.18  281.68 178.5  280 178.5  " fill-rule="nonzero" fill="#797979" stroke="none" />
</svg>