<?xml version="1.0" encoding="utf-8"?>
<svg version="1.1" xmlns:xlink="http://www.w3.org/1999/xlink" width="12px" height="12px" viewBox="413 219.5  12 12" xmlns="http://www.w3.org/2000/svg">
  <path d="M 419 219.5  C 422.36 219.5  425 222.14  425 225.5  C 425 228.86  422.36 231.5  419 231.5  C 415.64 231.5  413 228.86  413 225.5  C 413 222.14  415.64 219.5  419 219.5  Z " fill-rule="nonzero" fill="#ffffff" stroke="none" />
  <path d="M 419 220  C 422.08 220  424.5 222.42  424.5 225.5  C 424.5 228.58  422.08 231  419 231  C 415.92 231  413.5 228.58  413.5 225.5  C 413.5 222.42  415.92 220  419 220  Z " stroke-width="1" stroke="#797979" fill="none" />
  <path d="M 419 228.5  C 417.32 228.5  416 227.18  416 225.5  C 416 223.82  417.32 222.5  419 222.5  C 420.68 222.5  422 223.82  422 225.5  C 422 227.18  420.68 228.5  419 228.5  " fill-rule="nonzero" fill="#797979" stroke="none" />
</svg>