<?xml version="1.0" encoding="utf-8"?>
<svg version="1.1" xmlns:xlink="http://www.w3.org/1999/xlink" width="12px" height="12px" viewBox="67 188.5  12 12" xmlns="http://www.w3.org/2000/svg">
  <path d="M 73 188.5  C 76.36 188.5  79 191.14  79 194.5  C 79 197.86  76.36 200.5  73 200.5  C 69.64 200.5  67 197.86  67 194.5  C 67 191.14  69.64 188.5  73 188.5  Z " fill-rule="nonzero" fill="#ffffff" stroke="none" />
  <path d="M 73 189  C 76.08 189  78.5 191.42  78.5 194.5  C 78.5 197.58  76.08 200  73 200  C 69.92 200  67.5 197.58  67.5 194.5  C 67.5 191.42  69.92 189  73 189  Z " stroke-width="1" stroke="#797979" fill="none" />
  <path d="M 73 197.5  C 71.32 197.5  70 196.18  70 194.5  C 70 192.82  71.32 191.5  73 191.5  C 74.68 191.5  76 192.82  76 194.5  C 76 196.18  74.68 197.5  73 197.5  " fill-rule="nonzero" fill="#797979" stroke="none" />
</svg>