<?xml version="1.0" encoding="utf-8"?>
<svg version="1.1" xmlns:xlink="http://www.w3.org/1999/xlink" width="12px" height="12px" viewBox="56 194.5  12 12" xmlns="http://www.w3.org/2000/svg">
  <path d="M 62 194.5  C 65.36 194.5  68 197.14  68 200.5  C 68 203.86  65.36 206.5  62 206.5  C 58.64 206.5  56 203.86  56 200.5  C 56 197.14  58.64 194.5  62 194.5  Z " fill-rule="nonzero" fill="#ffffff" stroke="none" />
  <path d="M 62 195  C 65.08 195  67.5 197.42  67.5 200.5  C 67.5 203.58  65.08 206  62 206  C 58.92 206  56.5 203.58  56.5 200.5  C 56.5 197.42  58.92 195  62 195  Z " stroke-width="1" stroke="#797979" fill="none" />
  <path d="M 62 203.5  C 60.32 203.5  59 202.18  59 200.5  C 59 198.82  60.32 197.5  62 197.5  C 63.68 197.5  65 198.82  65 200.5  C 65 202.18  63.68 203.5  62 203.5  " fill-rule="nonzero" fill="#797979" stroke="none" />
</svg>