<?xml version="1.0" encoding="utf-8"?>
<svg version="1.1" xmlns:xlink="http://www.w3.org/1999/xlink" width="12px" height="12px" viewBox="56 228.5  12 12" xmlns="http://www.w3.org/2000/svg">
  <path d="M 62 228.5  C 65.36 228.5  68 231.14  68 234.5  C 68 237.86  65.36 240.5  62 240.5  C 58.64 240.5  56 237.86  56 234.5  C 56 231.14  58.64 228.5  62 228.5  Z " fill-rule="nonzero" fill="#ffffff" stroke="none" />
  <path d="M 62 229  C 65.08 229  67.5 231.42  67.5 234.5  C 67.5 237.58  65.08 240  62 240  C 58.92 240  56.5 237.58  56.5 234.5  C 56.5 231.42  58.92 229  62 229  Z " stroke-width="1" stroke="#797979" fill="none" />
  <path d="M 62 237.5  C 60.32 237.5  59 236.18  59 234.5  C 59 232.82  60.32 231.5  62 231.5  C 63.68 231.5  65 232.82  65 234.5  C 65 236.18  63.68 237.5  62 237.5  " fill-rule="nonzero" fill="#797979" stroke="none" />
</svg>