<?xml version="1.0" encoding="utf-8"?>
<svg version="1.1" xmlns:xlink="http://www.w3.org/1999/xlink" width="12px" height="12px" viewBox="137 79.5  12 12" xmlns="http://www.w3.org/2000/svg">
  <path d="M 143 79.5  C 146.36 79.5  149 82.14  149 85.5  C 149 88.86  146.36 91.5  143 91.5  C 139.64 91.5  137 88.86  137 85.5  C 137 82.14  139.64 79.5  143 79.5  Z " fill-rule="nonzero" fill="#ffffff" stroke="none" />
  <path d="M 143 80  C 146.08 80  148.5 82.42  148.5 85.5  C 148.5 88.58  146.08 91  143 91  C 139.92 91  137.5 88.58  137.5 85.5  C 137.5 82.42  139.92 80  143 80  Z " stroke-width="1" stroke="#797979" fill="none" />
  <path d="M 143 88.5  C 141.32 88.5  140 87.18  140 85.5  C 140 83.82  141.32 82.5  143 82.5  C 144.68 82.5  146 83.82  146 85.5  C 146 87.18  144.68 88.5  143 88.5  " fill-rule="nonzero" fill="#797979" stroke="none" />
</svg>