<?xml version="1.0" encoding="utf-8"?>
<svg version="1.1" xmlns:xlink="http://www.w3.org/1999/xlink" width="12px" height="12px" viewBox="318 115.5  12 12" xmlns="http://www.w3.org/2000/svg">
  <path d="M 324 115.5  C 327.36 115.5  330 118.14  330 121.5  C 330 124.86  327.36 127.5  324 127.5  C 320.64 127.5  318 124.86  318 121.5  C 318 118.14  320.64 115.5  324 115.5  Z " fill-rule="nonzero" fill="#ffffff" stroke="none" />
  <path d="M 324 116  C 327.08 116  329.5 118.42  329.5 121.5  C 329.5 124.58  327.08 127  324 127  C 320.92 127  318.5 124.58  318.5 121.5  C 318.5 118.42  320.92 116  324 116  Z " stroke-width="1" stroke="#797979" fill="none" />
  <path d="M 324 124.5  C 322.32 124.5  321 123.18  321 121.5  C 321 119.82  322.32 118.5  324 118.5  C 325.68 118.5  327 119.82  327 121.5  C 327 123.18  325.68 124.5  324 124.5  " fill-rule="nonzero" fill="#797979" stroke="none" />
</svg>