<?xml version="1.0" encoding="utf-8"?>
<svg version="1.1" xmlns:xlink="http://www.w3.org/1999/xlink" width="12px" height="12px" viewBox="208 115.5  12 12" xmlns="http://www.w3.org/2000/svg">
  <path d="M 214 115.5  C 217.36 115.5  220 118.14  220 121.5  C 220 124.86  217.36 127.5  214 127.5  C 210.64 127.5  208 124.86  208 121.5  C 208 118.14  210.64 115.5  214 115.5  Z " fill-rule="nonzero" fill="#ffffff" stroke="none" />
  <path d="M 214 116  C 217.08 116  219.5 118.42  219.5 121.5  C 219.5 124.58  217.08 127  214 127  C 210.92 127  208.5 124.58  208.5 121.5  C 208.5 118.42  210.92 116  214 116  Z " stroke-width="1" stroke="#797979" fill="none" />
  <path d="M 214 124.5  C 212.32 124.5  211 123.18  211 121.5  C 211 119.82  212.32 118.5  214 118.5  C 215.68 118.5  217 119.82  217 121.5  C 217 123.18  215.68 124.5  214 124.5  " fill-rule="nonzero" fill="#797979" stroke="none" />
</svg>