<?xml version="1.0" encoding="utf-8"?>
<svg version="1.1" xmlns:xlink="http://www.w3.org/1999/xlink" width="12px" height="12px" viewBox="428 115.5  12 12" xmlns="http://www.w3.org/2000/svg">
  <path d="M 434 115.5  C 437.36 115.5  440 118.14  440 121.5  C 440 124.86  437.36 127.5  434 127.5  C 430.64 127.5  428 124.86  428 121.5  C 428 118.14  430.64 115.5  434 115.5  Z " fill-rule="nonzero" fill="#ffffff" stroke="none" />
  <path d="M 434 116  C 437.08 116  439.5 118.42  439.5 121.5  C 439.5 124.58  437.08 127  434 127  C 430.92 127  428.5 124.58  428.5 121.5  C 428.5 118.42  430.92 116  434 116  Z " stroke-width="1" stroke="#797979" fill="none" />
  <path d="M 434 124.5  C 432.32 124.5  431 123.18  431 121.5  C 431 119.82  432.32 118.5  434 118.5  C 435.68 118.5  437 119.82  437 121.5  C 437 123.18  435.68 124.5  434 124.5  " fill-rule="nonzero" fill="#797979" stroke="none" />
</svg>