<?xml version="1.0" encoding="utf-8"?>
<svg version="1.1" xmlns:xlink="http://www.w3.org/1999/xlink" width="12px" height="12px" viewBox="137 9.5  12 12" xmlns="http://www.w3.org/2000/svg">
  <path d="M 143 9.5  C 146.36 9.5  149 12.14  149 15.5  C 149 18.86  146.36 21.5  143 21.5  C 139.64 21.5  137 18.86  137 15.5  C 137 12.14  139.64 9.5  143 9.5  Z " fill-rule="nonzero" fill="#ffffff" stroke="none" />
  <path d="M 143 10  C 146.08 10  148.5 12.42  148.5 15.5  C 148.5 18.58  146.08 21  143 21  C 139.92 21  137.5 18.58  137.5 15.5  C 137.5 12.42  139.92 10  143 10  Z " stroke-width="1" stroke="#797979" fill="none" />
  <path d="M 143 18.5  C 141.32 18.5  140 17.18  140 15.5  C 140 13.82  141.32 12.5  143 12.5  C 144.68 12.5  146 13.82  146 15.5  C 146 17.18  144.68 18.5  143 18.5  " fill-rule="nonzero" fill="#797979" stroke="none" />
</svg>